<svg xmlns="http://www.w3.org/2000/svg" viewBox="0 0 1000 526" role="img"><style>
text{font-family:Georgia,'Times New Roman',serif}
.base path{fill:#222937;stroke:#2c3547;stroke-width:.7}
.ttl{fill:#d0a047;font-size:19px;letter-spacing:2px}
.sub{fill:#8d8168;font-size:11px}
.lbl{fill:#e8dfc9;font-size:12px}
.lbs{fill:#a99c82;font-size:10.5px}
.sea{fill:#41628f;font-size:15px;letter-spacing:4px;font-style:italic;opacity:.9}
.leg{fill:#a99c82;font-size:11px}
</style><rect width="1000" height="526" fill="#161b26"/><text class="ttl" x="16" y="30">DENİZLER · NEHİRLER · GÖLLER · OVALAR</text><text class="sub" x="16" y="46">Ana akarsular, doğal göller ve büyük ovalar (şematik gösterim)</text><g class="base"><path d="M559.2,147.4 L565.1,145.5 L573.3,139.1 L580.3,127.8 L585.8,127.6 L592.4,129.7 L598.0,133.8 L601.8,134.0 L606.8,126.9 L611.5,127.8 L611.7,131.9 L617.5,136.7 L621.7,135.9 L628.3,137.6 L626.3,145.1 L627.7,151.1 L627.2,160.7 L632.2,165.8 L624.9,168.9 L624.8,173.5 L619.7,174.3 L615.2,179.0 L609.5,176.4 L606.4,171.3 L603.5,164.3 L596.8,164.2 L585.1,156.9 L574.9,157.3 L559.0,151.0 L559.2,147.4Z"/><path d="M580.3,127.8 L573.3,139.1 L565.1,145.5 L559.2,147.4 L556.5,144.6 L546.2,147.4 L540.7,143.7 L535.9,138.9 L534.1,140.2 L531.9,145.9 L525.9,149.6 L522.0,147.9 L509.8,148.1 L506.4,144.8 L497.5,138.7 L494.4,139.3 L479.0,135.4 L473.4,135.5 L471.5,128.2 L468.8,123.8 L471.1,120.5 L479.2,116.0 L481.1,118.8 L488.9,124.1 L499.1,122.1 L497.2,113.5 L496.4,103.3 L498.2,98.9 L504.1,99.2 L517.3,93.9 L520.2,92.0 L524.7,94.1 L528.5,98.8 L529.5,109.5 L534.9,116.0 L539.8,118.5 L540.3,120.3 L545.6,123.3 L551.4,119.4 L553.6,114.2 L564.2,115.3 L571.7,118.6 L574.2,121.9 L574.7,125.9 L580.3,127.8Z"/><path d="M638.8,406.0 L628.3,411.5 L619.7,413.7 L613.0,417.9 L608.4,414.1 L599.4,409.8 L597.9,410.9 L591.1,404.1 L583.5,401.1 L581.7,397.5 L578.2,397.9 L577.9,402.3 L570.2,406.9 L567.4,409.8 L564.0,406.5 L556.3,401.5 L562.8,392.5 L565.4,386.7 L569.5,380.8 L575.7,377.7 L578.0,374.2 L580.6,375.8 L582.3,381.5 L586.3,382.6 L590.9,377.4 L606.9,371.7 L613.4,371.0 L615.6,369.5 L615.7,362.7 L627.0,361.0 L633.1,363.0 L637.5,366.3 L634.0,367.1 L629.7,372.9 L627.7,378.4 L629.8,390.7 L632.7,392.9 L635.6,392.2 L635.2,396.1 L637.5,398.2 L638.8,406.0Z"/><path d="M222.1,129.7 L235.5,130.6 L242.3,126.5 L250.0,129.4 L248.0,134.3 L248.7,137.6 L252.3,138.3 L251.0,144.6 L243.8,143.5 L244.5,146.1 L241.2,149.4 L238.9,159.1 L236.8,163.1 L227.3,167.0 L223.9,167.1 L217.2,164.4 L204.5,168.0 L198.8,167.0 L199.3,164.6 L199.5,158.8 L203.2,156.5 L206.0,159.0 L215.7,157.2 L224.1,158.1 L224.4,155.4 L216.3,155.4 L211.5,153.2 L199.8,153.2 L196.2,154.0 L191.4,146.5 L201.5,138.1 L204.0,138.5 L207.7,143.8 L210.9,145.0 L212.2,141.9 L221.2,137.6 L222.6,134.3 L222.1,129.7Z"/><path d="M110.4,156.0 L115.1,157.7 L114.3,159.5 L108.8,161.6 L105.5,159.7 L105.1,157.3 L110.4,156.0Z M61.4,250.4 L58.8,244.2 L53.3,243.0 L64.3,235.6 L63.7,233.3 L70.2,230.4 L71.2,224.7 L69.1,223.9 L57.5,225.2 L57.7,220.0 L59.7,215.0 L66.3,215.6 L76.4,210.8 L81.7,210.5 L89.0,212.8 L97.5,208.7 L100.2,201.1 L98.7,198.9 L101.8,190.9 L98.0,187.3 L105.6,181.9 L106.1,178.5 L116.9,178.8 L121.9,174.8 L117.3,174.1 L112.4,166.7 L116.3,164.6 L126.6,167.5 L129.7,169.5 L122.9,174.0 L124.8,176.3 L133.3,174.8 L138.1,174.9 L132.3,181.2 L134.6,186.0 L132.5,190.6 L135.1,197.5 L138.5,201.2 L140.0,207.9 L152.7,218.3 L156.7,219.0 L159.2,217.4 L160.7,224.0 L164.1,227.1 L170.8,227.3 L173.4,229.5 L170.1,237.0 L169.2,241.7 L164.7,248.5 L157.2,251.6 L156.6,256.8 L152.2,255.9 L147.4,258.1 L139.3,258.6 L135.9,261.4 L129.2,261.5 L126.9,255.6 L121.9,249.4 L116.1,249.5 L118.5,244.6 L117.4,242.6 L106.6,241.5 L98.7,237.0 L94.7,238.9 L91.4,233.7 L88.6,233.0 L75.9,239.6 L72.8,243.3 L61.4,250.4Z"/><path d="M27.4,203.7 L29.5,204.6 L28.9,207.8 L24.5,205.1 L27.4,203.7Z M68.9,149.4 L68.9,149.3 L76.0,150.4 L75.7,155.6 L76.9,160.5 L62.5,166.4 L58.8,172.5 L49.6,179.5 L44.4,181.9 L45.8,184.9 L38.0,190.2 L34.3,190.5 L40.2,181.9 L40.8,177.8 L38.3,173.4 L44.1,171.0 L49.9,166.6 L58.4,162.5 L62.1,162.8 L65.5,159.5 L70.4,157.4 L68.3,153.5 L68.9,149.4Z M15.2,179.1 L23.1,177.4 L25.9,179.0 L25.2,183.1 L27.5,184.0 L15.0,186.3 L10.0,183.9 L15.2,179.1Z M57.5,225.2 L46.8,226.4 L41.8,228.6 L38.5,227.9 L31.1,229.3 L27.3,228.0 L29.7,220.2 L31.7,218.4 L32.9,213.4 L31.9,210.9 L33.5,197.8 L36.1,193.7 L41.9,193.4 L46.4,188.0 L47.6,182.5 L52.3,181.6 L64.8,170.0 L78.6,171.7 L83.0,168.0 L93.4,168.4 L94.6,174.2 L100.1,177.7 L106.1,178.5 L105.6,181.9 L98.0,187.3 L101.8,190.9 L98.7,198.9 L100.2,201.1 L97.5,208.7 L89.0,212.8 L81.7,210.5 L76.4,210.8 L66.3,215.6 L59.7,215.0 L57.7,220.0 L57.5,225.2Z"/><path d="M546.2,147.4 L556.5,144.6 L559.2,147.4 L559.0,151.0 L574.9,157.3 L585.1,156.9 L596.8,164.2 L603.5,164.3 L606.4,171.3 L601.4,181.0 L592.9,185.1 L580.0,186.7 L571.8,189.6 L566.0,189.2 L562.4,191.0 L559.5,201.3 L550.7,206.1 L542.5,206.8 L530.9,209.6 L528.3,205.5 L528.5,199.3 L526.3,197.3 L517.5,199.8 L508.9,199.7 L501.4,193.2 L504.6,187.4 L509.9,185.1 L517.3,172.2 L525.5,172.6 L532.0,175.7 L540.5,170.1 L540.6,166.9 L544.6,165.8 L549.0,155.4 L545.3,151.1 L546.2,147.4Z"/><path d="M672.6,192.8 L670.7,193.8 L664.1,194.4 L653.6,190.9 L648.6,192.4 L639.3,187.4 L632.2,165.8 L627.2,160.7 L627.7,151.1 L626.3,145.1 L628.3,137.6 L636.9,137.9 L639.2,139.6 L649.5,138.4 L654.6,134.9 L658.2,136.0 L661.2,132.7 L668.1,129.6 L673.7,129.1 L678.8,126.9 L678.0,134.9 L678.9,144.1 L680.0,146.5 L674.1,147.6 L668.7,152.8 L669.0,156.5 L666.3,160.7 L666.4,166.5 L667.8,168.0 L673.8,169.1 L677.8,171.7 L677.8,174.1 L670.4,180.0 L670.9,186.6 L672.6,192.8Z"/><path d="M664.1,194.4 L670.7,193.8 L672.6,192.8 L678.6,194.5 L688.1,198.9 L689.9,200.8 L696.1,202.8 L707.9,201.9 L716.1,198.6 L719.8,193.1 L727.7,191.4 L731.9,188.3 L740.2,189.4 L738.8,196.7 L741.6,197.8 L750.2,197.2 L753.9,201.4 L756.2,207.3 L762.1,211.0 L759.8,217.4 L759.9,221.4 L756.6,220.6 L740.8,220.9 L737.8,219.9 L728.2,224.0 L721.3,222.0 L714.0,227.1 L702.4,229.2 L694.6,228.6 L687.9,230.2 L680.4,233.1 L678.3,236.1 L671.0,240.7 L671.8,246.0 L668.0,248.1 L665.8,252.9 L667.5,260.6 L666.0,261.0 L664.7,261.8 L661.2,258.1 L656.6,256.2 L651.8,256.3 L647.7,254.5 L649.0,250.4 L647.0,238.9 L650.7,234.1 L645.9,230.0 L646.4,218.4 L649.8,212.7 L653.5,211.4 L652.8,208.4 L645.8,209.9 L646.8,202.3 L648.9,200.8 L653.8,202.7 L658.7,200.2 L663.3,200.3 L664.1,194.4Z"/><path d="M756.6,220.6 L759.9,221.4 L764.5,221.7 L771.6,217.2 L778.5,222.1 L785.5,223.7 L790.5,229.6 L789.2,233.8 L791.3,240.3 L795.3,245.6 L795.5,251.0 L792.4,255.7 L791.2,261.0 L797.0,270.2 L779.5,280.9 L766.3,280.8 L758.6,283.6 L758.5,287.4 L755.4,290.7 L749.5,291.4 L748.2,285.5 L745.2,281.8 L747.0,274.6 L750.4,275.3 L751.7,268.5 L747.3,262.9 L745.7,257.9 L746.3,253.3 L750.4,245.2 L748.6,242.2 L742.9,245.1 L731.7,252.2 L732.7,247.9 L731.2,243.1 L731.9,236.4 L734.8,234.1 L739.2,233.6 L739.9,231.2 L744.5,230.0 L748.7,224.3 L752.4,224.5 L756.6,220.6Z"/><path d="M556.3,401.5 L564.0,406.5 L567.4,409.8 L564.7,415.2 L563.2,423.5 L563.2,429.2 L561.8,431.7 L564.9,442.6 L567.5,443.1 L569.2,448.7 L560.4,449.1 L558.0,451.0 L553.8,449.3 L553.2,453.3 L553.6,464.6 L549.3,464.7 L549.0,467.0 L545.2,467.5 L542.4,476.2 L534.5,472.8 L533.7,469.5 L530.1,470.3 L533.3,463.6 L531.7,459.1 L523.5,446.8 L522.9,444.3 L526.6,440.7 L529.4,435.8 L535.5,430.4 L543.4,425.2 L544.6,421.7 L542.9,412.4 L535.9,405.0 L532.0,405.3 L529.4,408.1 L528.5,404.1 L533.5,398.5 L535.8,399.1 L547.2,399.0 L551.0,402.0 L556.3,401.5Z"/><path d="M535.8,399.1 L533.5,398.5 L528.5,404.1 L529.4,408.1 L522.9,414.7 L516.5,415.6 L510.8,419.9 L515.6,419.0 L514.1,425.9 L509.6,427.2 L507.9,425.6 L499.4,430.3 L483.1,420.9 L477.3,419.0 L484.3,414.3 L483.3,403.5 L484.7,399.4 L482.7,397.4 L477.0,395.8 L475.4,385.4 L472.9,383.5 L469.1,376.1 L469.2,371.6 L472.7,365.4 L470.6,357.2 L472.3,354.7 L477.5,355.6 L482.6,354.7 L489.2,347.8 L498.1,348.2 L509.2,351.7 L511.9,350.3 L510.5,338.4 L529.2,324.7 L535.1,314.4 L537.1,308.9 L543.2,304.6 L547.3,303.3 L550.0,304.4 L555.7,312.9 L551.5,319.8 L547.5,339.9 L549.7,351.6 L545.7,355.8 L536.9,356.5 L534.7,360.5 L528.7,375.9 L528.9,380.8 L530.6,385.5 L535.0,386.0 L537.8,391.7 L535.8,399.1Z"/><path d="M428.9,213.0 L428.8,209.7 L431.1,205.3 L430.4,199.8 L426.9,197.5 L424.3,189.8 L430.1,186.8 L433.4,179.4 L430.4,172.5 L427.9,160.3 L429.5,155.1 L426.9,151.1 L438.2,147.1 L439.3,143.8 L435.7,139.3 L439.5,131.6 L442.9,128.1 L445.9,122.1 L448.4,121.4 L449.8,123.1 L458.2,124.2 L460.9,126.6 L466.5,128.2 L468.8,123.8 L471.5,128.2 L473.4,135.5 L479.0,135.4 L477.2,142.2 L476.6,153.0 L480.6,161.3 L490.4,163.4 L496.7,166.1 L498.1,169.0 L497.2,176.2 L493.0,182.9 L492.2,190.5 L485.5,191.8 L485.0,199.3 L479.9,203.5 L473.3,202.7 L465.9,206.5 L456.8,207.9 L449.1,206.7 L439.6,210.6 L431.7,211.6 L428.9,213.0Z"/><path d="M424.3,189.8 L426.9,197.5 L430.4,199.8 L431.1,205.3 L428.8,209.7 L428.9,213.0 L429.6,215.6 L430.1,218.3 L422.1,226.1 L419.9,232.8 L416.5,238.3 L408.3,245.0 L402.7,254.8 L398.7,247.1 L396.7,237.9 L391.3,230.5 L390.0,225.0 L392.7,214.0 L394.9,208.4 L404.3,206.2 L404.6,194.1 L405.9,185.1 L419.6,189.4 L424.3,189.8Z"/><path d="M435.9,336.8 L452.5,311.4 L462.7,310.2 L468.9,313.7 L474.3,311.7 L478.1,321.4 L481.1,324.6 L489.4,324.5 L490.9,328.7 L490.8,334.3 L492.5,338.8 L490.2,340.5 L489.2,347.8 L482.6,354.7 L477.5,355.6 L472.3,354.7 L470.6,357.2 L472.7,365.4 L469.2,371.6 L469.1,376.1 L465.5,375.3 L458.6,378.6 L454.7,378.8 L448.2,370.1 L448.3,365.3 L451.5,358.8 L450.9,355.1 L443.3,344.9 L438.4,342.7 L435.9,336.8Z"/><path d="M452.5,311.4 L435.9,336.8 L432.1,336.2 L420.2,339.8 L408.1,340.3 L399.7,341.5 L394.1,335.3 L393.0,330.2 L389.8,323.9 L390.2,318.7 L395.0,302.7 L400.0,295.4 L413.0,290.5 L417.6,290.6 L423.8,285.5 L423.9,281.8 L421.8,276.3 L423.4,272.0 L429.4,274.2 L432.1,278.5 L439.0,276.6 L438.5,279.2 L440.2,285.0 L437.7,291.3 L438.5,294.6 L443.4,296.7 L446.6,296.7 L445.7,306.1 L452.5,311.4Z"/><path d="M439.0,276.6 L432.1,278.5 L429.4,274.2 L423.4,272.0 L423.8,269.8 L413.7,265.0 L403.8,258.5 L402.7,254.8 L408.3,245.0 L416.5,238.3 L419.9,232.8 L422.1,226.1 L430.1,218.3 L434.8,220.2 L440.0,225.5 L446.3,226.2 L448.4,230.4 L455.5,238.8 L460.3,240.6 L463.9,245.4 L456.7,246.0 L458.7,255.0 L458.2,259.2 L460.9,264.3 L458.8,267.0 L446.9,272.9 L445.8,276.4 L446.7,280.8 L444.6,281.3 L439.0,276.6Z"/><path d="M430.1,218.3 L429.6,215.6 L428.9,213.0 L431.7,211.6 L439.6,210.6 L449.1,206.7 L456.8,207.9 L465.9,206.5 L473.3,202.7 L479.9,203.5 L485.0,199.3 L485.5,191.8 L492.2,190.5 L494.0,192.7 L501.4,193.2 L508.9,199.7 L517.5,199.8 L526.3,197.3 L528.5,199.3 L528.3,205.5 L530.9,209.6 L532.4,214.3 L537.6,222.3 L536.2,227.7 L528.5,235.0 L522.7,244.3 L518.6,248.3 L514.5,254.4 L498.5,265.4 L490.6,270.0 L479.0,268.5 L476.1,259.0 L472.0,256.6 L470.2,252.0 L463.9,245.4 L460.3,240.6 L455.5,238.8 L448.4,230.4 L446.3,226.2 L440.0,225.5 L434.8,220.2 L430.1,218.3Z"/><path d="M501.4,193.2 L494.0,192.7 L492.2,190.5 L493.0,182.9 L497.2,176.2 L498.1,169.0 L496.7,166.1 L490.4,163.4 L480.6,161.3 L476.6,153.0 L477.2,142.2 L479.0,135.4 L494.4,139.3 L497.5,138.7 L506.4,144.8 L509.8,148.1 L522.0,147.9 L525.9,149.6 L531.9,145.9 L534.1,140.2 L535.9,138.9 L540.7,143.7 L546.2,147.4 L545.3,151.1 L549.0,155.4 L544.6,165.8 L540.6,166.9 L540.5,170.1 L532.0,175.7 L525.5,172.6 L517.3,172.2 L509.9,185.1 L504.6,187.4 L501.4,193.2Z"/><path d="M812.0,280.9 L809.2,281.7 L806.4,282.7 L804.0,280.8 L803.6,275.5 L797.0,270.2 L791.2,261.0 L792.4,255.7 L795.5,251.0 L795.3,245.6 L791.3,240.3 L789.2,233.8 L790.5,229.6 L798.4,227.6 L802.6,228.1 L810.0,233.5 L814.7,238.3 L823.5,239.5 L827.3,236.3 L833.5,234.6 L839.0,229.4 L840.3,220.8 L846.8,216.6 L851.6,215.4 L856.0,222.7 L864.0,230.9 L865.0,246.2 L857.6,251.6 L849.2,251.6 L840.9,256.0 L839.6,260.2 L835.1,260.5 L834.4,263.0 L836.8,268.1 L832.2,273.8 L828.8,276.2 L820.0,276.3 L812.0,280.9Z"/><path d="M806.4,282.7 L809.2,281.7 L812.0,280.9 L816.5,282.2 L820.6,294.3 L821.5,302.0 L816.4,311.7 L810.6,313.8 L809.2,317.0 L810.0,321.2 L816.0,325.8 L825.7,328.7 L831.8,334.3 L817.5,346.9 L809.7,349.2 L803.8,346.2 L799.5,339.0 L795.4,334.8 L793.1,334.5 L790.6,328.4 L795.1,322.2 L798.3,311.0 L797.1,300.4 L798.2,290.5 L799.2,288.8 L806.9,284.9 L806.4,282.7Z"/><path d="M909.1,167.9 L894.2,174.4 L892.8,179.2 L890.0,178.4 L879.9,179.4 L865.0,185.5 L855.1,184.7 L850.4,178.1 L844.6,174.4 L837.0,172.8 L832.4,168.0 L833.6,164.3 L840.6,161.2 L850.5,153.6 L848.5,147.2 L849.2,142.6 L860.7,139.6 L861.5,121.8 L867.1,118.0 L890.0,104.4 L891.7,109.8 L899.3,112.8 L906.0,124.0 L907.7,130.6 L905.1,140.8 L901.2,145.5 L904.6,148.0 L903.7,153.0 L908.3,157.7 L911.4,163.8 L908.3,166.1 L909.1,167.9Z"/><path d="M892.8,179.2 L894.2,174.4 L909.1,167.9 L922.2,172.1 L928.3,172.4 L939.1,168.7 L942.8,168.8 L950.3,171.9 L956.3,177.7 L962.7,181.9 L967.2,186.3 L970.3,191.3 L957.1,184.7 L952.3,189.8 L952.8,193.5 L949.8,192.7 L941.0,195.9 L933.2,195.2 L923.5,196.3 L922.6,194.5 L914.6,192.6 L911.5,188.5 L904.5,186.5 L898.3,190.9 L895.6,189.8 L892.8,179.2Z"/><path d="M275.7,135.8 L289.3,135.4 L295.0,131.7 L296.9,133.5 L305.2,137.9 L317.2,139.1 L316.2,144.8 L313.8,147.6 L302.8,149.6 L300.4,151.4 L298.2,159.5 L294.3,162.3 L289.5,162.7 L284.0,160.3 L276.0,160.4 L271.9,158.8 L272.3,149.8 L271.2,146.1 L275.9,139.7 L275.7,135.8Z"/><path d="M341.3,120.6 L336.9,126.4 L334.4,135.1 L334.3,140.9 L323.8,140.4 L317.2,139.1 L305.2,137.9 L296.9,133.5 L295.0,131.7 L297.8,128.4 L298.0,121.0 L310.6,115.9 L321.1,109.1 L329.4,104.6 L334.0,103.1 L339.7,107.3 L342.4,115.1 L341.3,120.6Z"/><path d="M334.3,140.9 L334.4,135.1 L336.9,126.4 L341.3,120.6 L346.6,121.0 L351.8,119.6 L357.7,114.7 L360.0,110.0 L362.7,109.2 L367.4,104.8 L369.0,106.7 L375.6,105.0 L379.1,107.6 L381.9,116.6 L377.1,117.5 L372.3,123.1 L372.8,132.4 L378.2,133.9 L379.7,136.2 L377.5,141.6 L372.8,144.2 L368.0,143.7 L363.9,149.0 L358.0,153.6 L352.9,155.9 L351.2,150.8 L340.7,145.5 L341.0,141.9 L334.3,140.9Z"/><path d="M199.3,164.6 L198.8,167.0 L195.7,166.3 L192.4,169.5 L189.2,170.0 L181.8,166.3 L176.8,165.5 L176.6,172.6 L173.5,172.0 L166.6,168.3 L167.6,166.3 L177.5,160.8 L192.2,160.1 L197.8,157.7 L199.5,158.8 L199.3,164.6Z"/><path d="M275.7,135.8 L275.9,139.7 L271.2,146.1 L272.3,149.8 L271.9,158.8 L268.8,161.2 L268.5,167.2 L261.8,168.5 L256.9,176.5 L259.1,181.9 L258.1,184.2 L251.8,183.5 L248.4,179.8 L242.4,179.3 L235.5,181.0 L231.2,179.4 L227.5,175.6 L224.5,170.0 L224.1,168.6 L223.9,167.1 L227.3,167.0 L236.8,163.1 L238.9,159.1 L241.2,149.4 L244.5,146.1 L243.8,143.5 L251.0,144.6 L252.3,138.3 L248.7,137.6 L248.0,134.3 L250.0,129.4 L263.2,132.9 L265.5,134.9 L275.7,135.8Z"/><path d="M351.9,161.4 L352.7,157.8 L352.9,155.9 L358.0,153.6 L363.9,149.0 L368.0,143.7 L372.8,144.2 L377.5,141.6 L379.7,136.2 L381.5,138.3 L387.8,139.0 L396.4,144.8 L403.4,141.0 L407.2,140.3 L415.2,136.0 L418.2,138.3 L414.8,143.8 L416.7,147.0 L422.9,150.6 L426.9,151.1 L429.5,155.1 L427.9,160.3 L430.4,172.5 L433.4,179.4 L430.1,186.8 L424.3,189.8 L419.6,189.4 L405.9,185.1 L396.0,181.5 L393.4,185.3 L389.8,185.7 L386.5,183.2 L384.8,179.3 L378.4,174.7 L374.2,168.7 L359.7,161.9 L351.9,161.4Z"/><path d="M352.9,155.9 L352.7,157.8 L351.9,161.4 L348.7,163.4 L348.4,167.0 L350.3,172.2 L346.3,178.1 L342.2,180.1 L335.3,179.1 L331.2,181.1 L317.6,184.9 L309.5,184.9 L305.0,186.6 L299.3,185.0 L297.7,183.2 L289.3,183.9 L280.3,179.5 L277.0,190.4 L272.8,192.7 L269.7,196.8 L266.4,196.1 L263.4,195.0 L258.7,187.1 L258.1,184.2 L259.1,181.9 L256.9,176.5 L261.8,168.5 L268.5,167.2 L268.8,161.2 L271.9,158.8 L276.0,160.4 L284.0,160.3 L289.5,162.7 L294.3,162.3 L298.2,159.5 L300.4,151.4 L302.8,149.6 L313.8,147.6 L316.2,144.8 L317.2,139.1 L323.8,140.4 L334.3,140.9 L341.0,141.9 L340.7,145.5 L351.2,150.8 L352.9,155.9Z"/><path d="M68.9,149.3 L68.9,149.4 L68.3,153.5 L59.7,154.2 L54.3,156.5 L51.5,154.9 L44.3,155.6 L33.1,154.0 L31.6,145.8 L36.8,144.1 L41.1,139.2 L42.0,135.9 L48.9,132.1 L47.7,121.7 L49.0,113.2 L52.1,113.1 L59.7,107.6 L62.1,109.2 L64.6,106.3 L63.7,90.8 L62.7,92.2 L57.4,88.0 L58.1,86.3 L51.4,83.3 L51.8,78.3 L54.0,76.7 L61.3,76.8 L62.8,70.2 L66.8,67.8 L72.2,68.8 L77.2,68.1 L79.0,82.1 L79.1,88.4 L77.6,94.6 L71.6,106.9 L72.9,110.0 L73.0,120.3 L69.3,127.0 L66.4,135.3 L66.4,140.7 L68.9,149.3Z"/><path d="M263.4,195.0 L266.4,196.1 L269.7,196.8 L271.8,199.6 L272.4,204.8 L275.6,205.1 L280.4,203.2 L285.8,204.8 L288.7,202.7 L295.8,202.9 L297.9,205.1 L312.7,205.3 L315.3,214.0 L318.5,215.0 L320.2,219.2 L318.1,221.5 L320.8,231.6 L323.3,233.9 L325.5,239.8 L325.0,249.3 L327.9,254.1 L325.7,256.9 L318.6,260.8 L317.3,265.6 L310.3,265.8 L304.5,265.1 L297.9,265.7 L294.2,262.7 L291.7,257.0 L288.3,253.1 L273.1,261.1 L268.5,257.3 L263.4,261.7 L255.8,265.0 L251.9,262.5 L250.1,259.0 L246.9,257.1 L246.1,252.9 L241.2,246.1 L239.5,237.1 L232.3,228.5 L237.5,221.6 L238.2,214.9 L242.9,210.5 L248.1,209.6 L252.5,204.8 L254.2,198.2 L258.4,195.0 L263.4,195.0Z"/><path d="M310.3,265.8 L317.3,265.6 L318.6,260.8 L323.1,263.1 L332.0,269.8 L339.9,268.0 L349.8,272.4 L356.0,268.5 L359.8,270.1 L369.2,262.1 L376.7,265.5 L379.4,257.8 L381.6,257.8 L392.5,264.5 L395.2,270.8 L394.9,285.4 L400.0,295.4 L395.0,302.7 L390.2,318.7 L389.8,323.9 L393.0,330.2 L394.1,335.3 L399.7,341.5 L408.1,340.3 L420.2,339.8 L432.1,336.2 L435.9,336.8 L438.4,342.7 L443.3,344.9 L450.9,355.1 L451.5,358.8 L448.3,365.3 L448.2,370.1 L454.7,378.8 L454.1,380.8 L446.6,385.6 L439.2,388.8 L436.1,391.9 L431.2,383.5 L417.9,369.4 L416.5,361.1 L409.2,360.1 L402.9,367.0 L397.6,369.0 L381.9,370.5 L377.0,372.4 L368.1,382.3 L356.9,397.2 L355.9,403.8 L362.2,405.5 L362.8,409.2 L353.7,419.0 L347.8,423.4 L348.2,419.0 L346.3,413.1 L340.0,411.5 L341.0,404.9 L337.3,403.0 L330.8,397.1 L325.9,391.0 L314.7,382.5 L301.5,379.6 L294.1,378.5 L289.8,374.1 L291.8,366.6 L289.9,360.0 L293.9,357.3 L296.3,350.9 L295.2,340.6 L296.4,336.4 L305.1,332.1 L305.4,330.0 L295.4,321.1 L288.4,313.7 L287.0,308.9 L296.1,303.2 L304.6,293.4 L305.4,285.9 L311.0,276.5 L309.1,271.7 L310.3,265.8Z"/><path d="M223.9,167.1 L224.1,168.6 L224.5,170.0 L219.7,173.2 L217.1,180.2 L218.6,185.6 L212.6,192.2 L211.0,201.9 L214.7,206.9 L215.3,210.1 L210.0,210.3 L203.7,211.0 L198.6,208.8 L196.0,210.4 L191.5,221.9 L189.1,223.5 L187.4,230.7 L184.6,232.3 L175.3,231.0 L173.4,229.5 L170.8,227.3 L164.1,227.1 L160.7,224.0 L159.2,217.4 L156.7,219.0 L152.7,218.3 L140.0,207.9 L138.5,201.2 L135.1,197.5 L132.5,190.6 L134.6,186.0 L132.3,181.2 L138.1,174.9 L151.9,175.5 L159.3,178.2 L166.1,176.1 L175.2,179.1 L180.6,178.5 L182.0,175.3 L185.0,174.9 L181.0,171.7 L176.6,172.6 L176.8,165.5 L181.8,166.3 L189.2,170.0 L192.4,169.5 L195.7,166.3 L198.8,167.0 L204.5,168.0 L217.2,164.4 L223.9,167.1Z"/><path d="M141.9,100.7 L139.5,103.6 L139.4,103.6 L122.3,104.6 L112.0,106.8 L107.5,113.6 L101.3,116.2 L94.1,109.1 L80.4,108.9 L72.9,110.0 L71.6,106.9 L77.6,94.6 L79.1,88.4 L79.0,82.1 L77.2,68.1 L82.2,67.1 L86.6,62.4 L93.9,63.9 L98.9,62.0 L105.5,70.1 L111.3,75.3 L114.6,72.0 L120.2,71.5 L123.3,73.3 L124.3,70.0 L134.5,72.0 L135.5,77.4 L132.2,77.4 L131.7,81.7 L136.8,91.4 L136.5,93.5 L141.9,100.7Z"/><path d="M139.4,103.6 L139.5,103.6 L141.9,100.7 L150.5,107.2 L160.8,112.3 L175.6,120.3 L185.3,122.7 L183.9,127.0 L186.2,124.3 L191.3,122.6 L210.2,127.4 L222.1,129.7 L222.6,134.3 L221.2,137.6 L212.2,141.9 L210.9,145.0 L207.7,143.8 L204.0,138.5 L201.5,138.1 L191.4,146.5 L186.1,143.7 L180.5,139.0 L179.7,135.8 L182.5,133.0 L182.9,129.8 L178.4,137.6 L176.3,137.2 L170.3,139.9 L166.6,138.5 L159.2,138.2 L158.4,132.5 L156.6,137.3 L152.8,134.3 L141.9,130.4 L138.9,130.5 L138.1,121.8 L140.7,112.7 L139.4,103.6Z"/><path d="M358.0,438.7 L351.7,432.5 L347.8,423.4 L353.7,419.0 L362.8,409.2 L362.2,405.5 L355.9,403.8 L356.9,397.2 L368.1,382.3 L377.0,372.4 L381.9,370.5 L397.6,369.0 L402.9,367.0 L409.2,360.1 L416.5,361.1 L417.9,369.4 L431.2,383.5 L436.1,391.9 L426.6,394.5 L421.6,398.3 L414.6,400.3 L408.5,400.1 L404.4,401.7 L395.7,403.0 L386.7,409.6 L385.0,414.3 L381.9,412.3 L375.2,415.0 L378.5,423.5 L384.7,427.0 L388.4,430.8 L387.0,432.5 L381.6,431.2 L379.0,436.9 L374.1,437.0 L367.9,439.1 L358.0,438.7Z"/><path d="M347.8,423.4 L351.7,432.5 L358.0,438.7 L357.7,449.7 L353.7,461.0 L350.6,460.4 L342.8,455.5 L338.5,450.7 L338.2,448.4 L333.8,443.8 L329.2,435.4 L325.2,431.7 L314.3,428.5 L310.1,425.1 L293.0,417.0 L289.5,413.9 L268.7,410.4 L260.1,410.6 L255.5,407.8 L251.0,411.2 L249.3,414.8 L248.4,425.4 L248.8,431.3 L246.2,433.8 L243.7,439.4 L245.9,443.3 L239.3,452.0 L239.4,449.3 L231.9,445.1 L226.9,445.6 L226.1,448.5 L217.7,450.6 L213.7,450.6 L204.4,456.3 L206.4,454.1 L202.7,454.0 L200.9,456.2 L197.3,450.7 L191.7,450.2 L187.5,446.3 L184.5,448.3 L179.6,444.3 L182.1,442.3 L185.3,433.5 L191.5,432.5 L191.7,429.0 L196.9,425.1 L197.3,417.5 L203.5,404.8 L206.5,403.9 L211.4,397.1 L212.4,392.2 L215.4,388.4 L224.9,383.9 L235.9,380.4 L239.0,380.9 L243.3,385.4 L261.2,385.6 L265.4,379.5 L269.2,376.4 L273.7,378.3 L282.0,376.2 L287.0,373.6 L289.8,374.1 L294.1,378.5 L301.5,379.6 L314.7,382.5 L325.9,391.0 L330.8,397.1 L337.3,403.0 L341.0,404.9 L340.0,411.5 L346.3,413.1 L348.2,419.0 L347.8,423.4Z"/><path d="M222.3,349.3 L217.7,348.9 L213.5,350.1 L211.3,346.1 L204.4,343.7 L204.6,337.1 L223.0,324.0 L223.8,318.1 L217.4,307.0 L210.3,305.1 L213.4,296.7 L216.6,293.8 L217.7,288.6 L228.6,282.7 L232.3,277.5 L237.2,265.0 L243.2,262.4 L246.9,257.1 L250.1,259.0 L251.9,262.5 L255.8,265.0 L263.4,261.7 L268.5,257.3 L273.1,261.1 L288.3,253.1 L291.7,257.0 L294.2,262.7 L297.9,265.7 L304.5,265.1 L310.3,265.8 L309.1,271.7 L311.0,276.5 L305.4,285.9 L304.6,293.4 L296.1,303.2 L287.0,308.9 L279.3,302.8 L269.1,311.4 L262.6,317.9 L256.5,319.5 L249.6,323.0 L244.3,328.2 L232.7,337.6 L231.9,344.3 L230.1,347.4 L222.3,349.3Z"/><path d="M213.5,350.1 L217.7,348.9 L222.3,349.3 L223.9,353.5 L227.8,353.4 L239.1,345.3 L247.9,354.5 L254.8,355.3 L257.8,357.3 L260.7,365.7 L265.1,372.8 L267.4,373.0 L269.2,376.4 L265.4,379.5 L261.2,385.6 L243.3,385.4 L239.0,380.9 L235.9,380.4 L224.9,383.9 L215.4,388.4 L212.4,392.2 L211.4,397.1 L206.5,403.9 L203.5,404.8 L199.3,398.5 L193.0,399.2 L190.4,402.2 L188.4,401.3 L188.3,394.2 L189.8,387.3 L199.2,372.4 L197.4,367.7 L197.2,361.5 L203.9,358.3 L205.3,355.4 L213.5,350.1Z"/><path d="M289.8,374.1 L287.0,373.6 L282.0,376.2 L273.7,378.3 L269.2,376.4 L267.4,373.0 L265.1,372.8 L260.7,365.7 L257.8,357.3 L254.8,355.3 L247.9,354.5 L239.1,345.3 L227.8,353.4 L223.9,353.5 L222.3,349.3 L230.1,347.4 L231.9,344.3 L232.7,337.6 L244.3,328.2 L249.6,323.0 L256.5,319.5 L262.6,317.9 L269.1,311.4 L279.3,302.8 L287.0,308.9 L288.4,313.7 L295.4,321.1 L305.4,330.0 L305.1,332.1 L296.4,336.4 L295.2,340.6 L296.3,350.9 L293.9,357.3 L289.9,360.0 L291.8,366.6 L289.8,374.1Z"/><path d="M148.4,324.9 L155.3,325.4 L159.2,330.4 L160.2,338.6 L158.3,342.4 L161.1,347.4 L164.4,348.2 L164.5,351.5 L160.9,352.6 L155.5,358.3 L147.8,358.5 L146.7,360.9 L148.8,365.9 L142.1,364.7 L135.3,359.5 L131.6,358.5 L124.5,365.4 L114.6,365.2 L112.5,363.9 L105.4,363.8 L101.9,361.1 L94.0,358.0 L90.6,358.8 L86.1,366.8 L82.1,370.5 L77.7,371.3 L75.9,369.8 L76.9,362.1 L74.6,362.6 L76.7,354.2 L66.8,349.1 L72.9,348.0 L79.5,344.8 L80.6,335.4 L88.4,334.2 L94.9,330.4 L97.6,330.2 L110.2,331.9 L122.3,329.4 L132.2,329.7 L148.4,324.9Z"/><path d="M155.3,325.4 L148.4,324.9 L143.0,312.7 L136.9,309.9 L128.5,310.7 L125.3,305.0 L117.4,303.7 L115.1,307.9 L112.5,308.3 L109.2,302.1 L101.9,297.3 L99.8,292.1 L89.5,291.1 L86.6,288.3 L85.5,283.7 L82.3,280.2 L87.0,273.0 L88.2,268.2 L94.4,265.3 L99.3,261.3 L100.0,257.9 L97.5,251.9 L94.7,238.9 L98.7,237.0 L106.6,241.5 L117.4,242.6 L118.5,244.6 L116.1,249.5 L121.9,249.4 L126.9,255.6 L129.2,261.5 L135.9,261.4 L139.3,258.6 L147.4,258.1 L152.2,255.9 L156.6,256.8 L160.0,260.6 L169.0,263.8 L172.8,271.2 L172.1,275.2 L174.7,281.4 L174.2,285.5 L164.5,293.5 L167.1,297.8 L167.4,304.0 L166.2,309.0 L163.1,312.7 L167.7,316.1 L162.9,317.0 L159.8,324.6 L155.3,325.4Z"/><path d="M694.5,323.8 L697.4,316.4 L695.5,313.2 L689.9,314.4 L691.3,308.3 L689.3,304.6 L696.3,302.9 L705.0,303.7 L712.3,300.8 L720.2,300.2 L723.4,298.3 L726.2,291.9 L732.3,293.2 L749.5,291.4 L755.4,290.7 L758.5,287.4 L758.6,283.6 L766.3,280.8 L779.5,280.9 L797.0,270.2 L803.6,275.5 L804.0,280.8 L806.4,282.7 L806.9,284.9 L799.2,288.8 L798.2,290.5 L797.1,300.4 L798.3,311.0 L795.1,322.2 L790.6,328.4 L793.1,334.5 L790.0,336.3 L771.9,337.4 L766.3,339.0 L763.6,344.1 L759.4,344.7 L744.1,357.4 L739.4,364.3 L736.8,361.8 L732.6,353.5 L730.6,345.8 L730.4,338.7 L724.7,334.9 L723.8,336.6 L715.8,332.9 L708.8,327.2 L698.6,325.8 L694.5,323.8Z"/><path d="M689.9,314.4 L695.5,313.2 L697.4,316.4 L694.5,323.8 L688.1,327.9 L687.8,331.1 L684.2,333.5 L684.1,343.0 L680.3,344.5 L682.1,346.2 L675.9,347.7 L679.6,350.4 L668.2,352.9 L661.9,360.7 L649.4,363.7 L645.1,368.0 L640.3,365.7 L637.5,366.3 L633.1,363.0 L627.0,361.0 L615.7,362.7 L606.8,358.4 L604.7,351.8 L611.6,343.2 L628.1,338.4 L632.5,339.2 L640.4,336.2 L643.3,333.1 L644.4,327.1 L648.3,324.7 L654.8,315.2 L661.4,313.8 L664.7,316.3 L662.3,320.5 L667.2,322.0 L674.4,322.0 L680.9,320.6 L687.9,317.3 L689.9,314.4Z"/><path d="M611.6,343.2 L604.7,351.8 L606.8,358.4 L615.7,362.7 L615.6,369.5 L613.4,371.0 L606.9,371.7 L590.9,377.4 L586.3,382.6 L582.3,381.5 L580.6,375.8 L578.0,374.2 L575.7,377.7 L569.5,380.8 L567.1,377.6 L560.3,373.4 L547.6,376.6 L545.4,374.1 L543.0,366.5 L545.9,360.9 L545.7,355.8 L549.7,351.6 L547.5,339.9 L551.5,319.8 L555.7,312.9 L562.8,303.7 L565.8,295.6 L567.4,294.4 L574.1,292.5 L583.4,294.5 L594.7,293.0 L592.0,298.1 L592.8,301.9 L596.6,301.3 L604.2,302.5 L610.9,306.1 L618.6,308.6 L621.3,312.8 L618.5,325.1 L615.8,329.5 L613.6,339.2 L611.6,343.2Z"/><path d="M567.4,294.4 L565.8,295.6 L562.8,303.7 L555.7,312.9 L550.0,304.4 L547.3,303.3 L543.2,304.6 L537.1,308.9 L535.1,314.4 L529.2,324.7 L510.5,338.4 L511.9,350.3 L509.2,351.7 L498.1,348.2 L489.2,347.8 L490.2,340.5 L492.5,338.8 L490.8,334.3 L490.9,328.7 L489.4,324.5 L481.1,324.6 L478.1,321.4 L474.3,311.7 L481.9,299.3 L481.7,290.2 L475.5,281.1 L479.0,268.5 L490.6,270.0 L498.5,265.4 L514.5,254.4 L518.6,248.3 L523.8,249.6 L533.6,256.2 L538.7,256.7 L542.5,255.2 L550.9,256.1 L556.0,258.7 L560.5,257.0 L569.5,257.4 L573.7,259.4 L575.8,265.1 L572.0,276.2 L567.4,294.4Z"/><path d="M664.7,261.8 L666.0,261.0 L667.5,260.6 L669.7,263.4 L669.4,268.8 L671.7,270.8 L681.0,268.9 L692.7,270.7 L705.9,276.0 L708.6,273.0 L717.0,271.8 L721.7,269.6 L724.5,265.9 L726.2,260.0 L725.0,255.2 L726.5,253.4 L731.7,252.2 L742.9,245.1 L748.6,242.2 L750.4,245.2 L746.3,253.3 L745.7,257.9 L747.3,262.9 L751.7,268.5 L750.4,275.3 L747.0,274.6 L745.2,281.8 L748.2,285.5 L749.5,291.4 L732.3,293.2 L726.2,291.9 L723.4,298.3 L720.2,300.2 L712.3,300.8 L705.0,303.7 L696.3,302.9 L689.3,304.6 L683.1,306.1 L677.5,304.0 L673.3,299.3 L667.2,300.9 L660.8,298.5 L656.3,298.0 L650.7,294.4 L649.1,290.6 L651.6,285.4 L654.5,284.0 L656.7,279.7 L662.3,279.9 L663.0,277.6 L661.8,270.3 L660.1,266.8 L661.1,262.2 L664.7,261.8Z"/><path d="M477.3,419.0 L468.7,413.4 L464.7,413.5 L457.5,416.7 L450.3,423.6 L443.1,428.6 L438.0,436.1 L432.8,440.0 L432.9,445.5 L428.8,447.2 L426.7,453.1 L425.2,448.1 L422.1,446.6 L418.3,452.0 L415.4,453.2 L412.4,457.8 L410.3,454.6 L405.3,458.9 L400.4,456.9 L396.6,458.2 L383.3,458.6 L380.9,461.9 L373.2,460.5 L365.9,465.5 L358.9,464.1 L353.7,461.0 L357.7,449.7 L358.0,438.7 L367.9,439.1 L374.1,437.0 L379.0,436.9 L381.6,431.2 L387.0,432.5 L388.4,430.8 L384.7,427.0 L378.5,423.5 L375.2,415.0 L381.9,412.3 L385.0,414.3 L386.7,409.6 L395.7,403.0 L404.4,401.7 L408.5,400.1 L414.6,400.3 L421.6,398.3 L426.6,394.5 L436.1,391.9 L439.2,388.8 L446.6,385.6 L454.1,380.8 L454.7,378.8 L458.6,378.6 L465.5,375.3 L469.1,376.1 L472.9,383.5 L475.4,385.4 L477.0,395.8 L482.7,397.4 L484.7,399.4 L483.3,403.5 L484.3,414.3 L477.3,419.0Z"/><path d="M435.2,79.4 L440.9,80.2 L448.2,78.3 L452.0,79.7 L458.5,80.0 L463.5,78.8 L467.8,75.7 L470.6,69.8 L474.3,70.1 L479.9,74.7 L477.9,79.5 L484.6,91.4 L488.3,94.3 L493.3,95.7 L498.2,98.9 L496.4,103.3 L497.2,113.5 L499.1,122.1 L488.9,124.1 L481.1,118.8 L479.2,116.0 L471.1,120.5 L468.8,123.8 L466.5,128.2 L460.9,126.6 L458.2,124.2 L449.8,123.1 L448.4,121.4 L448.7,112.9 L447.8,110.5 L449.1,105.7 L452.0,103.2 L453.7,98.9 L451.0,95.2 L447.7,94.4 L435.0,93.3 L431.8,92.1 L435.6,83.1 L435.2,79.4Z"/><path d="M778.5,103.6 L782.3,99.8 L787.3,97.7 L789.2,92.7 L792.8,88.3 L798.2,89.9 L801.9,89.0 L807.7,92.8 L813.8,86.7 L817.5,87.7 L824.2,85.9 L839.0,88.9 L840.7,95.2 L845.0,104.0 L844.2,108.6 L840.3,111.1 L836.5,116.3 L834.1,122.8 L821.6,125.0 L818.6,127.5 L818.8,132.9 L816.0,137.9 L815.6,143.5 L813.7,147.1 L805.2,144.5 L801.4,145.9 L793.1,151.2 L789.4,148.6 L790.0,138.4 L782.0,137.6 L777.9,135.8 L778.4,133.1 L789.0,117.5 L782.0,111.8 L778.5,103.6Z"/><path d="M738.5,127.4 L743.8,123.2 L748.4,123.3 L755.0,119.2 L760.8,112.0 L764.3,112.4 L770.2,109.5 L774.7,105.0 L778.5,103.6 L782.0,111.8 L789.0,117.5 L778.4,133.1 L777.9,135.8 L769.4,143.4 L763.6,145.4 L762.4,149.3 L755.5,151.5 L747.8,156.2 L747.0,147.7 L743.2,140.0 L742.2,135.5 L738.5,127.4Z"/><path d="M678.8,126.9 L685.1,127.8 L692.5,123.2 L695.6,123.8 L700.9,128.4 L704.9,129.6 L707.7,128.4 L714.3,131.3 L721.2,129.6 L727.8,133.1 L738.5,127.4 L742.2,135.5 L743.2,140.0 L747.0,147.7 L747.8,156.2 L732.9,159.5 L724.4,158.8 L718.9,154.6 L715.2,157.7 L712.5,153.9 L708.9,151.9 L707.1,155.8 L702.4,156.8 L690.5,153.0 L683.7,145.0 L680.0,146.5 L678.9,144.1 L678.0,134.9 L678.8,126.9Z"/><path d="M400.0,295.4 L394.9,285.4 L395.2,270.8 L392.5,264.5 L381.6,257.8 L379.4,257.8 L376.7,265.5 L369.2,262.1 L359.8,270.1 L356.0,268.5 L349.8,272.4 L339.9,268.0 L332.0,269.8 L323.1,263.1 L318.6,260.8 L325.7,256.9 L327.9,254.1 L325.0,249.3 L325.5,239.8 L323.3,233.9 L320.8,231.6 L318.1,221.5 L320.2,219.2 L318.5,215.0 L315.3,214.0 L312.7,205.3 L297.9,205.1 L295.8,202.9 L288.7,202.7 L285.8,204.8 L280.4,203.2 L275.6,205.1 L272.4,204.8 L271.8,199.6 L269.7,196.8 L272.8,192.7 L277.0,190.4 L280.3,179.5 L289.3,183.9 L297.7,183.2 L299.3,185.0 L305.0,186.6 L309.5,184.9 L317.6,184.9 L331.2,181.1 L335.3,179.1 L342.2,180.1 L346.3,178.1 L350.3,172.2 L348.4,167.0 L348.7,163.4 L351.9,161.4 L359.7,161.9 L374.2,168.7 L378.4,174.7 L384.8,179.3 L386.5,183.2 L389.8,185.7 L393.4,185.3 L396.0,181.5 L405.9,185.1 L404.6,194.1 L404.3,206.2 L394.9,208.4 L392.7,214.0 L390.0,225.0 L391.3,230.5 L396.7,237.9 L398.7,247.1 L402.7,254.8 L403.8,258.5 L413.7,265.0 L423.8,269.8 L423.4,272.0 L421.8,276.3 L423.9,281.8 L423.8,285.5 L417.6,290.6 L413.0,290.5 L400.0,295.4Z"/><path d="M755.3,392.8 L741.2,401.4 L730.2,406.5 L703.0,413.6 L700.2,413.9 L691.9,411.7 L679.7,413.4 L672.6,411.7 L665.1,404.7 L652.4,401.0 L647.1,401.0 L638.8,406.0 L637.5,398.2 L635.2,396.1 L635.6,392.2 L632.7,392.9 L629.8,390.7 L627.7,378.4 L629.7,372.9 L634.0,367.1 L637.5,366.3 L640.3,365.7 L645.1,368.0 L649.4,363.7 L661.9,360.7 L668.2,352.9 L679.6,350.4 L675.9,347.7 L682.1,346.2 L680.3,344.5 L684.1,343.0 L684.2,333.5 L687.8,331.1 L688.1,327.9 L694.5,323.8 L698.6,325.8 L708.8,327.2 L715.8,332.9 L723.8,336.6 L724.7,334.9 L730.4,338.7 L730.6,345.8 L732.6,353.5 L736.8,361.8 L739.4,364.3 L740.7,372.0 L746.9,377.2 L747.6,383.8 L752.9,391.8 L755.3,392.8Z"/><path d="M715.2,157.7 L718.9,154.6 L724.4,158.8 L732.9,159.5 L747.8,156.2 L749.7,160.0 L753.5,172.6 L756.8,174.1 L764.9,175.1 L762.9,180.7 L754.2,185.0 L750.2,189.2 L740.2,189.4 L731.9,188.3 L727.7,191.4 L719.8,193.1 L716.2,184.8 L717.9,176.7 L717.6,167.1 L715.2,157.7Z"/><path d="M849.2,142.6 L848.5,147.2 L850.5,153.6 L840.6,161.2 L833.6,164.3 L832.4,168.0 L837.0,172.8 L844.6,174.4 L850.4,178.1 L855.1,184.7 L846.5,190.9 L841.0,191.6 L845.6,196.2 L853.1,198.3 L852.1,200.6 L853.2,209.4 L851.6,215.4 L846.8,216.6 L840.3,220.8 L839.0,229.4 L833.5,234.6 L827.3,236.3 L823.5,239.5 L814.7,238.3 L810.0,233.5 L802.6,228.1 L798.4,227.6 L790.5,229.6 L785.5,223.7 L778.5,222.1 L771.6,217.2 L764.5,221.7 L759.9,221.4 L759.8,217.4 L762.1,211.0 L756.2,207.3 L753.9,201.4 L750.2,197.2 L741.6,197.8 L738.8,196.7 L740.2,189.4 L750.2,189.2 L754.2,185.0 L762.9,180.7 L764.9,175.1 L756.8,174.1 L753.5,172.6 L749.7,160.0 L747.8,156.2 L755.5,151.5 L762.4,149.3 L763.6,145.4 L769.4,143.4 L777.9,135.8 L782.0,137.6 L790.0,138.4 L789.4,148.6 L793.1,151.2 L801.4,145.9 L805.2,144.5 L813.7,147.1 L815.6,143.5 L816.0,137.9 L818.8,132.9 L818.6,127.5 L821.6,125.0 L834.1,122.8 L835.6,127.7 L842.1,133.9 L849.2,142.6Z"/><path d="M839.4,370.5 L818.1,377.6 L803.7,379.5 L787.4,377.1 L777.7,379.4 L768.6,385.0 L763.9,386.3 L755.3,392.8 L752.9,391.8 L747.6,383.8 L746.9,377.2 L740.7,372.0 L739.4,364.3 L744.1,357.4 L759.4,344.7 L763.6,344.1 L766.3,339.0 L771.9,337.4 L790.0,336.3 L793.1,334.5 L795.4,334.8 L799.5,339.0 L803.8,346.2 L809.7,349.2 L817.5,346.9 L831.8,334.3 L837.7,347.7 L837.4,352.1 L829.0,357.4 L827.1,360.1 L828.2,362.7 L834.5,364.0 L838.0,366.5 L839.4,370.5Z"/><path d="M914.9,352.8 L909.6,352.9 L902.4,349.9 L899.9,350.1 L892.5,354.2 L881.1,352.8 L874.1,367.5 L863.7,371.0 L862.2,367.1 L862.7,363.3 L859.2,359.9 L855.6,360.1 L854.7,357.7 L847.3,366.8 L839.4,370.5 L838.0,366.5 L834.5,364.0 L828.2,362.7 L827.1,360.1 L829.0,357.4 L837.4,352.1 L837.7,347.7 L831.8,334.3 L839.5,337.2 L849.8,337.0 L853.5,332.6 L860.4,332.2 L871.1,333.8 L891.1,334.1 L894.0,330.5 L894.2,326.8 L898.1,324.1 L908.0,325.6 L913.0,324.7 L912.7,334.5 L916.1,342.0 L916.3,347.8 L914.9,352.8Z"/><path d="M894.2,326.8 L894.0,330.5 L891.1,334.1 L871.1,333.8 L860.4,332.2 L853.5,332.6 L849.8,337.0 L839.5,337.2 L831.8,334.3 L825.7,328.7 L816.0,325.8 L810.0,321.2 L809.2,317.0 L810.6,313.8 L816.4,311.7 L821.5,302.0 L827.0,303.4 L832.6,303.4 L841.1,299.6 L844.8,300.9 L851.6,305.9 L861.7,308.3 L874.4,314.9 L877.6,312.1 L876.8,305.1 L878.8,298.8 L882.8,298.1 L890.8,299.5 L892.6,309.3 L892.5,318.7 L891.5,322.2 L894.2,326.8Z"/><path d="M954.1,308.5 L955.0,310.3 L960.2,309.6 L963.4,310.7 L967.9,316.0 L970.7,314.8 L975.8,318.3 L973.7,324.1 L976.1,325.9 L976.5,336.0 L990.0,344.6 L988.4,348.8 L989.4,354.7 L987.5,353.3 L979.3,354.4 L972.3,362.0 L968.1,363.9 L966.7,368.5 L962.8,368.5 L959.2,362.1 L961.7,357.1 L960.1,350.9 L952.6,348.0 L947.5,348.5 L943.1,354.8 L939.0,357.0 L936.7,355.5 L928.8,356.4 L921.4,356.1 L914.9,352.8 L916.3,347.8 L916.1,342.0 L912.7,334.5 L913.0,324.7 L919.9,323.8 L929.5,320.1 L933.9,320.9 L940.5,319.4 L943.2,317.3 L945.7,309.8 L954.1,308.5Z"/><path d="M934.5,216.0 L937.2,224.8 L943.1,227.7 L943.7,234.9 L941.9,237.9 L945.5,244.3 L950.1,246.8 L950.0,259.0 L953.0,261.1 L954.6,276.8 L961.5,276.2 L963.8,279.6 L959.9,284.9 L960.1,291.7 L954.4,304.2 L954.1,308.5 L945.7,309.8 L943.2,317.3 L940.5,319.4 L933.9,320.9 L929.5,320.1 L919.9,323.8 L913.0,324.7 L908.0,325.6 L898.1,324.1 L894.2,326.8 L891.5,322.2 L892.5,318.7 L892.6,309.3 L890.8,299.5 L882.8,298.1 L878.8,298.8 L876.0,298.2 L874.4,290.2 L871.7,284.8 L872.6,280.9 L880.8,274.7 L886.2,263.1 L892.1,256.6 L893.1,251.7 L890.6,248.6 L884.2,245.7 L881.7,237.6 L888.5,233.1 L887.8,226.6 L883.7,225.0 L883.9,223.0 L889.7,220.7 L893.3,216.2 L900.9,217.1 L906.5,221.0 L912.9,221.1 L917.2,217.9 L927.6,218.8 L934.5,216.0Z"/><path d="M839.0,88.9 L843.0,83.2 L843.6,79.4 L848.1,77.5 L856.0,77.6 L853.9,82.4 L857.2,84.1 L858.9,82.1 L866.3,89.0 L876.0,93.7 L872.3,97.1 L875.7,97.1 L879.2,101.4 L883.6,99.6 L889.5,101.2 L890.0,104.4 L867.1,118.0 L861.5,121.8 L860.7,139.6 L849.2,142.6 L842.1,133.9 L835.6,127.7 L834.1,122.8 L836.5,116.3 L840.3,111.1 L844.2,108.6 L845.0,104.0 L840.7,95.2 L839.0,88.9Z"/><path d="M613.0,417.9 L609.1,420.6 L598.4,419.5 L591.1,420.3 L588.5,422.5 L586.4,421.1 L586.1,416.1 L583.5,414.0 L567.4,409.8 L570.2,406.9 L577.9,402.3 L578.2,397.9 L581.7,397.5 L583.5,401.1 L591.1,404.1 L597.9,410.9 L599.4,409.8 L608.4,414.1 L613.0,417.9Z"/><path d="M334.0,103.1 L340.4,95.3 L347.0,93.9 L357.4,87.7 L366.5,86.4 L367.0,90.3 L370.0,97.9 L367.0,100.2 L367.4,104.8 L362.7,109.2 L360.0,110.0 L357.7,114.7 L351.8,119.6 L346.6,121.0 L341.3,120.6 L342.4,115.1 L339.7,107.3 L334.0,103.1Z"/><path d="M138.9,130.5 L130.8,132.6 L127.9,136.7 L123.0,136.2 L117.0,133.6 L106.5,134.5 L103.7,137.4 L100.9,144.5 L96.0,148.8 L93.6,152.3 L87.9,156.7 L81.3,157.5 L76.9,160.5 L75.7,155.6 L76.0,150.4 L68.9,149.3 L66.4,140.7 L66.4,135.3 L69.3,127.0 L73.0,120.3 L72.9,110.0 L80.4,108.9 L94.1,109.1 L101.3,116.2 L107.5,113.6 L112.0,106.8 L122.3,104.6 L139.4,103.6 L140.7,112.7 L138.1,121.8 L138.9,130.5Z"/><path d="M80.6,335.4 L79.9,328.9 L73.6,328.1 L71.1,324.8 L65.3,322.8 L60.9,324.2 L59.2,317.3 L56.2,312.4 L49.7,312.8 L46.9,318.9 L39.9,311.6 L29.5,306.8 L33.9,303.0 L36.6,304.5 L42.3,301.6 L41.3,297.7 L44.5,297.5 L39.2,293.5 L37.0,284.6 L40.6,281.0 L45.1,283.1 L50.9,292.2 L49.5,298.9 L52.2,306.2 L52.4,301.1 L55.4,298.2 L57.2,302.8 L65.4,302.4 L70.1,300.5 L73.9,301.4 L77.5,297.9 L70.7,297.3 L66.2,298.8 L64.2,293.4 L61.5,291.1 L62.4,287.9 L57.6,286.3 L56.3,279.4 L61.6,277.5 L65.0,279.1 L66.9,277.4 L65.8,273.8 L74.6,269.8 L73.7,266.3 L70.6,267.4 L67.8,265.9 L64.2,267.1 L61.8,264.9 L62.2,259.4 L66.3,257.2 L61.4,250.4 L72.8,243.3 L75.9,239.6 L88.6,233.0 L91.4,233.7 L94.7,238.9 L97.5,251.9 L100.0,257.9 L99.3,261.3 L94.4,265.3 L88.2,268.2 L87.0,273.0 L82.3,280.2 L85.5,283.7 L86.6,288.3 L89.5,291.1 L99.8,292.1 L101.9,297.3 L109.2,302.1 L112.5,308.3 L115.1,307.9 L117.4,303.7 L125.3,305.0 L128.5,310.7 L136.9,309.9 L143.0,312.7 L148.4,324.9 L132.2,329.7 L122.3,329.4 L110.2,331.9 L97.6,330.2 L94.9,330.4 L88.4,334.2 L80.6,335.4Z"/><path d="M366.5,86.4 L372.6,84.9 L376.6,82.7 L384.3,80.1 L392.0,76.0 L402.5,76.5 L406.0,77.5 L418.6,78.7 L424.9,78.1 L435.2,79.4 L435.6,83.1 L431.8,92.1 L435.0,93.3 L447.7,94.4 L451.0,95.2 L453.7,98.9 L452.0,103.2 L449.1,105.7 L447.8,110.5 L448.7,112.9 L448.4,121.4 L445.9,122.1 L442.9,128.1 L439.5,131.6 L435.7,139.3 L439.3,143.8 L438.2,147.1 L426.9,151.1 L422.9,150.6 L416.7,147.0 L414.8,143.8 L418.2,138.3 L415.2,136.0 L407.2,140.3 L403.4,141.0 L396.4,144.8 L387.8,139.0 L381.5,138.3 L379.7,136.2 L378.2,133.9 L372.8,132.4 L372.3,123.1 L377.1,117.5 L381.9,116.6 L379.1,107.6 L375.6,105.0 L369.0,106.7 L367.4,104.8 L367.0,100.2 L370.0,97.9 L367.0,90.3 L366.5,86.4Z"/><path d="M179.6,444.3 L171.2,437.7 L173.0,436.4 L171.4,431.9 L172.6,427.2 L168.4,427.5 L169.0,422.4 L172.9,421.9 L171.9,419.9 L163.9,413.9 L159.8,417.5 L158.6,421.0 L151.4,416.3 L147.2,416.5 L146.6,408.9 L139.3,408.4 L138.6,404.1 L134.8,405.9 L137.3,407.7 L135.6,410.1 L129.4,405.8 L127.3,408.2 L129.9,412.9 L123.0,417.1 L120.1,421.5 L113.7,424.0 L112.2,421.1 L116.0,421.3 L119.1,418.8 L113.1,415.3 L120.7,414.0 L117.3,410.9 L110.4,412.1 L101.0,410.2 L98.2,412.3 L97.3,416.7 L91.2,414.6 L86.0,415.8 L81.2,414.0 L86.5,409.7 L94.5,409.6 L95.3,407.2 L102.3,408.9 L104.5,407.4 L114.6,408.5 L117.8,408.0 L115.5,404.7 L118.1,404.0 L116.9,400.3 L125.1,399.9 L126.7,395.9 L132.9,394.3 L131.7,392.9 L121.4,393.6 L109.8,393.4 L104.1,395.2 L101.0,394.3 L92.6,395.9 L86.4,391.9 L80.6,392.5 L79.4,396.0 L77.0,395.6 L75.7,389.1 L80.7,385.4 L84.2,385.2 L88.6,387.9 L92.9,385.6 L91.7,381.5 L96.0,381.3 L96.6,376.4 L88.6,377.4 L90.3,372.6 L85.4,372.6 L87.9,368.4 L86.1,366.8 L90.6,358.8 L94.0,358.0 L101.9,361.1 L105.4,363.8 L112.5,363.9 L114.6,365.2 L124.5,365.4 L131.6,358.5 L135.3,359.5 L142.1,364.7 L148.8,365.9 L149.5,372.2 L155.1,373.9 L158.6,382.3 L162.5,383.0 L164.5,386.3 L171.3,391.3 L172.4,399.5 L181.6,404.2 L185.2,400.3 L185.8,396.1 L188.3,394.2 L188.4,401.3 L190.4,402.2 L193.0,399.2 L199.3,398.5 L203.5,404.8 L197.3,417.5 L196.9,425.1 L191.7,429.0 L191.5,432.5 L185.3,433.5 L182.1,442.3 L179.6,444.3Z"/><path d="M174.2,285.5 L174.7,281.4 L172.1,275.2 L172.8,271.2 L169.0,263.8 L160.0,260.6 L156.6,256.8 L157.2,251.6 L164.7,248.5 L169.2,241.7 L170.1,237.0 L173.4,229.5 L175.3,231.0 L184.6,232.3 L187.4,230.7 L189.1,223.5 L191.5,221.9 L196.0,210.4 L198.6,208.8 L203.7,211.0 L210.0,210.3 L209.1,218.5 L211.4,223.1 L220.5,229.5 L222.7,230.2 L232.3,228.5 L239.5,237.1 L241.2,246.1 L246.1,252.9 L246.9,257.1 L243.2,262.4 L237.2,265.0 L232.3,277.5 L228.6,282.7 L217.7,288.6 L218.0,281.9 L215.8,279.1 L208.0,276.7 L202.0,277.8 L199.7,284.4 L190.2,286.0 L183.1,285.4 L177.1,283.2 L174.2,285.5Z"/><path d="M479.0,268.5 L475.5,281.1 L481.7,290.2 L481.9,299.3 L474.3,311.7 L468.9,313.7 L462.7,310.2 L452.5,311.4 L445.7,306.1 L446.6,296.7 L443.4,296.7 L438.5,294.6 L437.7,291.3 L440.2,285.0 L438.5,279.2 L439.0,276.6 L444.6,281.3 L446.7,280.8 L445.8,276.4 L446.9,272.9 L458.8,267.0 L460.9,264.3 L458.2,259.2 L458.7,255.0 L456.7,246.0 L463.9,245.4 L470.2,252.0 L472.0,256.6 L476.1,259.0 L479.0,268.5Z"/><path d="M606.4,171.3 L609.5,176.4 L615.2,179.0 L619.7,174.3 L624.8,173.5 L624.9,168.9 L632.2,165.8 L639.3,187.4 L648.6,192.4 L653.6,190.9 L664.1,194.4 L663.3,200.3 L658.7,200.2 L653.8,202.7 L648.9,200.8 L646.8,202.3 L645.8,209.9 L652.8,208.4 L653.5,211.4 L649.8,212.7 L646.4,218.4 L645.9,230.0 L650.7,234.1 L647.0,238.9 L649.0,250.4 L647.7,254.5 L640.4,259.0 L626.2,261.4 L619.0,266.0 L614.8,267.1 L610.5,265.2 L607.2,268.5 L610.0,277.1 L605.9,283.7 L602.6,285.7 L597.7,291.4 L594.7,293.0 L583.4,294.5 L574.1,292.5 L567.4,294.4 L572.0,276.2 L575.8,265.1 L573.7,259.4 L569.5,257.4 L560.5,257.0 L556.0,258.7 L550.9,256.1 L542.5,255.2 L538.7,256.7 L533.6,256.2 L523.8,249.6 L518.6,248.3 L522.7,244.3 L528.5,235.0 L536.2,227.7 L537.6,222.3 L532.4,214.3 L530.9,209.6 L542.5,206.8 L550.7,206.1 L559.5,201.3 L562.4,191.0 L566.0,189.2 L571.8,189.6 L580.0,186.7 L592.9,185.1 L601.4,181.0 L606.4,171.3Z"/><path d="M667.5,260.6 L665.8,252.9 L668.0,248.1 L671.8,246.0 L671.0,240.7 L678.3,236.1 L680.4,233.1 L687.9,230.2 L694.6,228.6 L702.4,229.2 L714.0,227.1 L721.3,222.0 L728.2,224.0 L737.8,219.9 L740.8,220.9 L756.6,220.6 L752.4,224.5 L748.7,224.3 L744.5,230.0 L739.9,231.2 L739.2,233.6 L734.8,234.1 L731.9,236.4 L731.2,243.1 L732.7,247.9 L731.7,252.2 L726.5,253.4 L725.0,255.2 L726.2,260.0 L724.5,265.9 L721.7,269.6 L717.0,271.8 L708.6,273.0 L705.9,276.0 L692.7,270.7 L681.0,268.9 L671.7,270.8 L669.4,268.8 L669.7,263.4 L667.5,260.6Z"/><path d="M647.7,254.5 L651.8,256.3 L656.6,256.2 L661.2,258.1 L664.7,261.8 L661.1,262.2 L660.1,266.8 L661.8,270.3 L663.0,277.6 L662.3,279.9 L656.7,279.7 L654.5,284.0 L651.6,285.4 L649.1,290.6 L650.7,294.4 L656.3,298.0 L660.8,298.5 L667.2,300.9 L673.3,299.3 L677.5,304.0 L683.1,306.1 L689.3,304.6 L691.3,308.3 L689.9,314.4 L687.9,317.3 L680.9,320.6 L674.4,322.0 L667.2,322.0 L662.3,320.5 L664.7,316.3 L661.4,313.8 L654.8,315.2 L648.3,324.7 L644.4,327.1 L643.3,333.1 L640.4,336.2 L632.5,339.2 L628.1,338.4 L611.6,343.2 L613.6,339.2 L615.8,329.5 L618.5,325.1 L621.3,312.8 L618.6,308.6 L610.9,306.1 L604.2,302.5 L596.6,301.3 L592.8,301.9 L592.0,298.1 L594.7,293.0 L597.7,291.4 L602.6,285.7 L605.9,283.7 L610.0,277.1 L607.2,268.5 L610.5,265.2 L614.8,267.1 L619.0,266.0 L626.2,261.4 L640.4,259.0 L647.7,254.5Z"/><path d="M851.6,215.4 L853.2,209.4 L852.1,200.6 L853.1,198.3 L845.6,196.2 L841.0,191.6 L846.5,190.9 L855.1,184.7 L865.0,185.5 L879.9,179.4 L890.0,178.4 L892.8,179.2 L895.6,189.8 L898.3,190.9 L904.5,186.5 L911.5,188.5 L914.6,192.6 L922.6,194.5 L923.5,196.3 L933.2,195.2 L941.0,195.9 L949.8,192.7 L952.8,193.5 L951.3,198.2 L951.8,207.4 L950.3,209.7 L945.4,211.7 L941.7,210.3 L934.7,211.8 L932.6,213.8 L934.5,216.0 L927.6,218.8 L917.2,217.9 L912.9,221.1 L906.5,221.0 L900.9,217.1 L893.3,216.2 L889.7,220.7 L883.9,223.0 L883.7,225.0 L887.8,226.6 L888.5,233.1 L881.7,237.6 L872.6,240.7 L865.0,246.2 L864.0,230.9 L856.0,222.7 L851.6,215.4Z"/><path d="M812.0,280.9 L820.0,276.3 L828.8,276.2 L832.2,273.8 L836.8,268.1 L834.4,263.0 L835.1,260.5 L839.6,260.2 L840.9,256.0 L849.2,251.6 L857.6,251.6 L865.0,246.2 L872.6,240.7 L881.7,237.6 L884.2,245.7 L890.6,248.6 L893.1,251.7 L892.1,256.6 L886.2,263.1 L880.8,274.7 L872.6,280.9 L871.7,284.8 L874.4,290.2 L876.0,298.2 L878.8,298.8 L876.8,305.1 L877.6,312.1 L874.4,314.9 L861.7,308.3 L851.6,305.9 L844.8,300.9 L841.1,299.6 L832.6,303.4 L827.0,303.4 L821.5,302.0 L820.6,294.3 L816.5,282.2 L812.0,280.9Z"/><path d="M719.8,193.1 L716.1,198.6 L707.9,201.9 L696.1,202.8 L689.9,200.8 L688.1,198.9 L678.6,194.5 L672.6,192.8 L670.9,186.6 L670.4,180.0 L677.8,174.1 L677.8,171.7 L673.8,169.1 L667.8,168.0 L666.4,166.5 L666.3,160.7 L669.0,156.5 L668.7,152.8 L674.1,147.6 L680.0,146.5 L683.7,145.0 L690.5,153.0 L702.4,156.8 L707.1,155.8 L708.9,151.9 L712.5,153.9 L715.2,157.7 L717.6,167.1 L717.9,176.7 L716.2,184.8 L719.8,193.1Z"/><path d="M569.5,380.8 L565.4,386.7 L562.8,392.5 L556.3,401.5 L551.0,402.0 L547.2,399.0 L535.8,399.1 L537.8,391.7 L535.0,386.0 L530.6,385.5 L528.9,380.8 L528.7,375.9 L534.7,360.5 L536.9,356.5 L545.7,355.8 L545.9,360.9 L543.0,366.5 L545.4,374.1 L547.6,376.6 L560.3,373.4 L567.1,377.6 L569.5,380.8Z"/><path d="M224.5,170.0 L227.5,175.6 L231.2,179.4 L235.5,181.0 L242.4,179.3 L248.4,179.8 L251.8,183.5 L258.1,184.2 L258.7,187.1 L263.4,195.0 L258.4,195.0 L254.2,198.2 L252.5,204.8 L248.1,209.6 L242.9,210.5 L238.2,214.9 L237.5,221.6 L232.3,228.5 L222.7,230.2 L220.5,229.5 L211.4,223.1 L209.1,218.5 L210.0,210.3 L215.3,210.1 L214.7,206.9 L211.0,201.9 L212.6,192.2 L218.6,185.6 L217.1,180.2 L219.7,173.2 L224.5,170.0Z"/><path d="M210.3,305.1 L217.4,307.0 L223.8,318.1 L223.0,324.0 L204.6,337.1 L204.4,343.7 L211.3,346.1 L213.5,350.1 L205.3,355.4 L203.9,358.3 L197.2,361.5 L197.4,367.7 L199.2,372.4 L189.8,387.3 L188.3,394.2 L185.8,396.1 L185.2,400.3 L181.6,404.2 L172.4,399.5 L171.3,391.3 L164.5,386.3 L162.5,383.0 L158.6,382.3 L155.1,373.9 L149.5,372.2 L148.8,365.9 L146.7,360.9 L147.8,358.5 L155.5,358.3 L160.9,352.6 L164.5,351.5 L164.4,348.2 L161.1,347.4 L158.3,342.4 L160.2,338.6 L159.2,330.4 L155.3,325.4 L159.8,324.6 L162.9,317.0 L167.7,316.1 L173.5,318.7 L179.0,317.2 L182.4,319.4 L189.0,319.3 L192.5,315.4 L199.9,315.9 L203.6,314.0 L203.9,306.2 L210.3,305.1Z"/><path d="M217.7,288.6 L216.6,293.8 L213.4,296.7 L210.3,305.1 L203.9,306.2 L203.6,314.0 L199.9,315.9 L192.5,315.4 L189.0,319.3 L182.4,319.4 L179.0,317.2 L173.5,318.7 L167.7,316.1 L163.1,312.7 L166.2,309.0 L167.4,304.0 L167.1,297.8 L164.5,293.5 L174.2,285.5 L177.1,283.2 L183.1,285.4 L190.2,286.0 L199.7,284.4 L202.0,277.8 L208.0,276.7 L215.8,279.1 L218.0,281.9 L217.7,288.6Z"/></g><text class="sea" x="274" y="94" text-anchor="middle">KARADENİZ</text><text class="sea" x="46" y="303" text-anchor="middle" transform="rotate(-78 46 303)">EGE DENİZİ</text><text class="sea" x="286" y="491" text-anchor="middle">AKDENİZ</text><text class="sea" x="131" y="160" text-anchor="middle">Marmara</text><ellipse cx="371" cy="341" rx="55" ry="26" fill="#7aa96c22" stroke="#7aa96c" stroke-width="1.2" stroke-dasharray="4 3"/><text class="lbs" x="371" y="345" text-anchor="middle">Konya Ovası</text><ellipse cx="499" cy="399" rx="30" ry="12" fill="#7aa96c22" stroke="#7aa96c" stroke-width="1.2" stroke-dasharray="4 3"/><text class="lbs" x="499" y="403" text-anchor="middle">Çukurova</text><ellipse cx="687" cy="402" rx="24" ry="13" fill="#7aa96c22" stroke="#7aa96c" stroke-width="1.2" stroke-dasharray="4 3"/><text class="lbs" x="687" y="406" text-anchor="middle">Harran Ovası</text><path d="M617,211 L557,233 L503,274 L470,290 L437,262 L401,217 L407,175 L465,143 L518,101" fill="none" stroke="#5aa7d8" stroke-width="2.2" stroke-linecap="round" stroke-linejoin="round" opacity="0.95"/><text class="lbl" x="443" y="256" text-anchor="start">Kızılırmak · 1355 km</text><path d="M787,192 L718,211 L669,276 L650,310 L651,362 L636,394 L638,415" fill="none" stroke="#5aa7d8" stroke-width="2.2" stroke-linecap="round" stroke-linejoin="round" opacity="0.95"/><text class="lbl" x="657" y="313" text-anchor="start">Fırat · 2800 km</text><path d="M706,296 L749,329 L794,331 L854,357" fill="none" stroke="#5aa7d8" stroke-width="2.2" stroke-linecap="round" stroke-linejoin="round" opacity="0.95"/><text class="lbl" x="798" y="345" text-anchor="start">Dicle · 1900 km</text><path d="M278,245 L319,217 L292,184 L248,155 L261,134" fill="none" stroke="#5aa7d8" stroke-width="2.2" stroke-linecap="round" stroke-linejoin="round" opacity="0.95"/><text class="lbl" x="300" y="176" text-anchor="start">Sakarya · 824 km</text><path d="M613,185 L553,184 L516,163 L544,142 L556,115" fill="none" stroke="#5aa7d8" stroke-width="2.2" stroke-linecap="round" stroke-linejoin="round" opacity="0.95"/><text class="lbl" x="520" y="179" text-anchor="start">Yeşilırmak · 519 km</text><path d="M733,180 L773,158 L799,133 L809,98" fill="none" stroke="#5aa7d8" stroke-width="2.2" stroke-linecap="round" stroke-linejoin="round" opacity="0.95"/><text class="lbl" x="805" y="129" text-anchor="start">Çoruh · 431 km</text><path d="M206,341 L175,345 L111,340 L80,357" fill="none" stroke="#5aa7d8" stroke-width="2.2" stroke-linecap="round" stroke-linejoin="round" opacity="0.95"/><text class="lbl" x="103" y="358" text-anchor="start">B. Menderes · 584 km</text><ellipse cx="884" cy="269" rx="27" ry="15" fill="#4a90c2" stroke="#14100a" stroke-width=".8" opacity=".95"/><text class="lbl" x="884" y="273" text-anchor="middle">Van Gölü</text><ellipse cx="396" cy="287" rx="11" ry="17" fill="#4a90c2" stroke="#14100a" stroke-width=".8" opacity=".95"/><text class="lbs" x="396" y="315" text-anchor="middle">Tuz Gölü</text><ellipse cx="301" cy="353" rx="8" ry="12" fill="#4a90c2" stroke="#14100a" stroke-width=".8" opacity=".95"/><text class="lbs" x="301" y="376" text-anchor="middle">Beyşehir</text><ellipse cx="267" cy="335" rx="5" ry="13" fill="#4a90c2" stroke="#14100a" stroke-width=".8" opacity=".95"/><text class="lbs" x="267" y="359" text-anchor="middle">Eğirdir</text><ellipse cx="205" cy="176" rx="9" ry="4" fill="#4a90c2" stroke="#14100a" stroke-width=".8" opacity=".95"/><text class="lbs" x="205" y="191" text-anchor="middle">İznik</text><text class="leg" x="16" y="512">— nehir · ⬭ göl · kesikli çizgi: ova (tarım havzası) · uzunluklar yaklaşıktır</text></svg>